<svg width="16" height="17" viewBox="0 0 16 17" fill="none" xmlns="http://www.w3.org/2000/svg">
<path d="M7.33333 12.5C7.14444 12.5 6.98622 12.436 6.85867 12.308C6.73067 12.1804 6.66667 12.0222 6.66667 11.8333C6.66667 11.6444 6.73067 11.4862 6.85867 11.3587C6.98622 11.2307 7.14444 11.1667 7.33333 11.1667H8.66667C8.85556 11.1667 9.014 11.2307 9.142 11.3587C9.26956 11.4862 9.33333 11.6444 9.33333 11.8333C9.33333 12.0222 9.26956 12.1804 9.142 12.308C9.014 12.436 8.85556 12.5 8.66667 12.5H7.33333ZM2.66667 5.83333C2.47778 5.83333 2.31956 5.76956 2.192 5.642C2.064 5.514 2 5.35556 2 5.16667C2 4.97778 2.064 4.81933 2.192 4.69133C2.31956 4.56378 2.47778 4.5 2.66667 4.5H13.3333C13.5222 4.5 13.6804 4.56378 13.808 4.69133C13.936 4.81933 14 4.97778 14 5.16667C14 5.35556 13.936 5.514 13.808 5.642C13.6804 5.76956 13.5222 5.83333 13.3333 5.83333H2.66667ZM4.66667 9.16667C4.47778 9.16667 4.31933 9.10267 4.19133 8.97467C4.06378 8.84711 4 8.68889 4 8.5C4 8.31111 4.06378 8.15267 4.19133 8.02467C4.31933 7.89711 4.47778 7.83333 4.66667 7.83333H11.3333C11.5222 7.83333 11.6804 7.89711 11.808 8.02467C11.936 8.15267 12 8.31111 12 8.5C12 8.68889 11.936 8.84711 11.808 8.97467C11.6804 9.10267 11.5222 9.16667 11.3333 9.16667H4.66667Z" fill="black"/>
</svg>
