<svg width="15" height="15" viewBox="0 0 15 15" fill="none" xmlns="http://www.w3.org/2000/svg">
<path d="M14.1111 0.820068H5.55557C5.34061 0.820068 5.16667 0.994011 5.16667 1.20897C5.16667 1.42393 5.34061 1.59787 5.55557 1.59787H13.1723L0.613941 14.1563C0.46202 14.3082 0.46202 14.5543 0.613941 14.7062C0.689884 14.7821 0.789415 14.8201 0.88891 14.8201C0.988405 14.8201 1.0879 14.7821 1.16388 14.7062L13.7222 2.14777V9.76454C13.7222 9.9795 13.8961 10.1534 14.1111 10.1534C14.3261 10.1534 14.5 9.9795 14.5 9.76454V1.20897C14.5 0.994011 14.326 0.820068 14.1111 0.820068Z" fill="#405FF2"/>
</svg>
