<svg width="27" height="35" viewBox="0 0 27 35" fill="none" xmlns="http://www.w3.org/2000/svg">
<mask id="mask0_5_18" style="mask-type:luminance" maskUnits="userSpaceOnUse" x="1" y="4" width="26" height="26">
<path d="M26.3275 4.71143H1.07031V29.9686H26.3275V4.71143Z" fill="white"/>
</mask>
<g mask="url(#mask0_5_18)">
<path d="M23.9199 16.2907L19.5599 15.5636C19.3049 15.1496 18.7982 14.4005 18.0613 13.6501C16.5906 12.1523 14.8973 11.3606 13.1645 11.3606H6.06417C4.91083 11.3606 3.8415 11.9842 3.27346 12.988L1.31687 16.4458C1.31371 16.4514 1.31134 16.4572 1.30833 16.4629C1.15699 16.7337 1.07031 17.0454 1.07031 17.3772V21.0208C1.07031 21.4294 1.40161 21.7607 1.81027 21.7607H4.18015C4.52798 22.6708 5.41454 23.3196 6.45112 23.3196C7.4877 23.3196 8.37423 22.6708 8.72211 21.7607H17.9124C18.2602 22.6708 19.1467 23.3196 20.1833 23.3196C21.2199 23.3196 22.1064 22.6708 22.4542 21.7607H25.5875C25.9961 21.7607 26.3275 21.4294 26.3275 21.0208V19.0619C26.3275 17.6738 25.2932 16.4845 23.9199 16.2907ZM17.7085 15.4965H12.3781V12.8405H13.1645C15.2619 12.8405 16.8458 14.3911 17.7085 15.4965ZM7.43935 12.8405H10.8982V15.4965H7.43935V12.8405ZM4.56147 13.7168C4.85005 13.2068 5.37897 12.8795 5.95944 12.8441V15.4965H3.55444L4.56147 13.7168ZM6.45112 21.8397C5.92807 21.8397 5.50255 21.4213 5.50255 20.907C5.50255 20.3927 5.92807 19.9743 6.45112 19.9743C6.97417 19.9743 7.39969 20.3927 7.39969 20.907C7.39969 21.4213 6.97417 21.8397 6.45112 21.8397ZM20.1833 21.8397C19.6602 21.8397 19.2347 21.4213 19.2347 20.907C19.2347 20.3927 19.6602 19.9743 20.1833 19.9743C20.7063 19.9743 21.1318 20.3927 21.1318 20.907C21.1318 21.4213 20.7063 21.8397 20.1833 21.8397ZM22.5283 20.2808C22.25 19.2532 21.3043 18.4943 20.1833 18.4943C19.0622 18.4943 18.1166 19.2532 17.8382 20.2808H8.7961C8.51783 19.2532 7.5722 18.4943 6.45112 18.4943C5.33004 18.4943 4.38442 19.2532 4.10605 20.2808H2.55023V17.3772C2.55023 17.1562 2.72998 16.9764 2.95098 16.9764H19.0348L23.6862 17.7521C23.6934 17.7533 23.7005 17.7544 23.7077 17.7553C23.8335 17.7726 23.9533 17.8077 24.0648 17.8576C23.7552 17.9462 23.5284 18.2306 23.5284 18.5686C23.5284 18.9773 23.8597 19.3086 24.2683 19.3086H24.8475V20.2808L22.5283 20.2808Z" fill="white"/>
</g>
</svg>
