<svg width="35" height="35" viewBox="0 0 35 35" fill="none" xmlns="http://www.w3.org/2000/svg">
<g filter="url(#filter0_d_5_30)">
<mask id="mask0_5_30" style="mask-type:luminance" maskUnits="userSpaceOnUse" x="4" y="4" width="27" height="26">
<path d="M30.1087 4.71143H4.85156V29.9686H30.1087V4.71143Z" fill="white"/>
</mask>
<g mask="url(#mask0_5_30)">
<path d="M26.5087 14.3381H24.4951C23.8222 13.3501 22.9269 12.5242 21.8839 11.9352C20.7159 11.2756 19.3896 10.927 18.0484 10.927H17.4801C17.0679 10.927 16.7338 11.2611 16.7338 11.6733V14.3381H8.45152C6.63305 14.3381 5.12616 15.6938 4.88586 17.4473C4.88317 17.4642 4.88085 17.4812 4.87931 17.4985C4.86178 17.6429 4.85156 17.7893 4.85156 17.9382V20.7919C4.85156 21.2041 5.1857 21.5382 5.59787 21.5382H8.20911C8.54113 22.8208 9.70829 23.7706 11.0932 23.7706C12.4781 23.7706 13.6453 22.8208 13.9773 21.5382H20.983C21.3152 22.8208 22.4822 23.7706 23.8671 23.7706C25.252 23.7706 26.4189 22.8208 26.7511 21.5382H29.3624C29.7746 21.5382 30.1087 21.2041 30.1087 20.7919V17.9382C30.1087 15.9531 28.4937 14.3381 26.5087 14.3381ZM18.2265 12.4223C19.8759 12.4696 21.4405 13.173 22.5752 14.3381H18.2265V12.4223ZM6.34419 18.3086H7.49691C7.90908 18.3086 8.24322 17.9745 8.24322 17.5623C8.24322 17.1501 7.90908 16.816 7.49691 16.816H6.66927C7.04291 16.2246 7.70194 15.8309 8.45152 15.8309H16.7338V20.0456H13.9773C13.6451 18.763 12.4781 17.813 11.0932 17.813C9.70829 17.813 8.54132 18.763 8.20911 20.0456H6.34419V18.3086ZM12.5793 20.7919C12.5793 21.6114 11.9127 22.278 11.0932 22.278C10.2737 22.278 9.60713 21.6114 9.60713 20.7919C9.60713 19.9724 10.2737 19.3058 11.0932 19.3058C11.9127 19.3058 12.5793 19.9724 12.5793 20.7919ZM25.3532 20.7919C25.3532 21.6114 24.6866 22.278 23.8671 22.278C23.0476 22.278 22.381 21.6114 22.381 20.7919C22.381 19.9724 23.0476 19.3058 23.8671 19.3058C24.6866 19.3058 25.3532 19.9724 25.3532 20.7919ZM26.7511 20.0456C26.4192 18.763 25.252 17.813 23.8671 17.813C22.4822 17.813 21.315 18.763 20.983 20.0456H18.2265V15.8309H26.5087C27.2451 15.8309 27.8942 16.211 28.2712 16.7848H27.1161C26.704 16.7848 26.3698 17.1189 26.3698 17.5311C26.3698 17.9433 26.704 18.2776 27.1161 18.2776H28.6161V20.0456H26.7511Z" fill="white"/>
</g>
</g>
<defs>
<filter id="filter0_d_5_30" x="0.480469" y="0.340088" width="34" height="42" filterUnits="userSpaceOnUse" color-interpolation-filters="sRGB">
<feFlood flood-opacity="0" result="BackgroundImageFix"/>
<feColorMatrix in="SourceAlpha" type="matrix" values="0 0 0 0 0 0 0 0 0 0 0 0 0 0 0 0 0 0 127 0" result="hardAlpha"/>
<feOffset dy="4"/>
<feGaussianBlur stdDeviation="2"/>
<feComposite in2="hardAlpha" operator="out"/>
<feColorMatrix type="matrix" values="0 0 0 0 0 0 0 0 0 0 0 0 0 0 0 0 0 0 0.25 0"/>
<feBlend mode="normal" in2="BackgroundImageFix" result="effect1_dropShadow_5_30"/>
<feBlend mode="normal" in="SourceGraphic" in2="effect1_dropShadow_5_30" result="shape"/>
</filter>
</defs>
</svg>
