<svg width="27" height="35" viewBox="0 0 27 35" fill="none" xmlns="http://www.w3.org/2000/svg">
<path d="M23.6935 16.3814L20.4541 15.0862L18.5715 10.693C18.1864 9.79521 17.3073 9.21509 16.3307 9.21509H8.8784C7.79615 9.21509 6.83172 9.94228 6.53434 10.9831L5.41472 14.9026H3.58984C2.69365 14.9026 1.96484 15.6314 1.96484 16.5276V21.4026C1.96484 22.2987 2.69365 23.0276 3.58984 23.0276H5.33022C5.6934 24.4251 6.95522 25.4651 8.46484 25.4651C9.97445 25.4651 11.2363 24.4251 11.5995 23.0276H15.0802C15.4434 24.4251 16.7052 25.4651 18.2148 25.4651C19.7244 25.4651 20.9863 24.4251 21.3494 23.0276H23.0898C23.986 23.0276 24.7148 22.2987 24.7148 21.4026V17.8901C24.7148 17.2215 24.3143 16.6291 23.6935 16.3814ZM8.46484 23.8401C7.56865 23.8401 6.83984 23.1112 6.83984 22.2151C6.83984 21.3189 7.56865 20.5901 8.46484 20.5901C9.361 20.5901 10.0898 21.3189 10.0898 22.2151C10.0898 23.1112 9.361 23.8401 8.46484 23.8401ZM18.2148 23.8401C17.3187 23.8401 16.5898 23.1112 16.5898 22.2151C16.5898 21.3189 17.3187 20.5901 18.2148 20.5901C19.111 20.5901 19.8398 21.3189 19.8398 22.2151C19.8398 23.1112 19.111 23.8401 18.2148 23.8401ZM23.0898 21.4026H21.3494C20.9863 20.0051 19.7244 18.9651 18.2148 18.9651C16.7052 18.9651 15.4434 20.0051 15.0802 21.4026H11.5995C11.2363 20.0051 9.97445 18.9651 8.46484 18.9651C6.95522 18.9651 5.6934 20.0051 5.33022 21.4026H3.58984V16.5276H6.02734C6.38972 16.5276 6.70903 16.2871 6.80815 15.9385L8.09595 11.43C8.1959 11.0822 8.51684 10.8401 8.8784 10.8401H16.3307C16.6557 10.8401 16.949 11.0335 17.0773 11.3325L19.0923 16.0352C19.1768 16.2335 19.3369 16.3895 19.5368 16.4699L23.0898 17.8901V21.4026Z" fill="white"/>
<path d="M12.0766 18.8287C11.7037 18.5801 11.603 18.0755 11.8516 17.7018L12.634 16.5277H11.7151C11.4153 16.5277 11.1399 16.3628 10.9985 16.0987C10.8571 15.8346 10.8725 15.5137 11.0391 15.2651L12.6641 12.8276C12.9127 12.4539 13.4173 12.3531 13.791 12.6025C14.164 12.8511 14.2647 13.3557 14.0161 13.7295L13.2336 14.9027H14.1526C14.4524 14.9027 14.7279 15.0676 14.8692 15.3317C15.0106 15.5958 14.9951 15.9167 14.8286 16.1654L13.2036 18.6029C12.9541 18.9774 12.4488 19.0774 12.0766 18.8287Z" fill="white"/>
</svg>
