<svg width="32" height="35" viewBox="0 0 32 35" fill="none" xmlns="http://www.w3.org/2000/svg">
<g filter="url(#filter0_d_5_26)">
<path d="M23.2539 14.9025H22.3033C22.1963 14.9031 22.0903 14.8826 21.9914 14.8422C21.8923 14.8017 21.8023 14.7422 21.7264 14.6668L19.5651 12.5056C19.0322 11.9726 18.3986 11.5509 17.7011 11.265C17.0037 10.979 16.2564 10.8346 15.5027 10.84H8.62891C7.55147 10.84 6.51815 11.268 5.75629 12.0298C4.99442 12.7917 4.56641 13.8251 4.56641 14.9025V18.965C4.56641 19.6114 4.82322 20.2315 5.28034 20.6886C5.73745 21.1457 6.35744 21.4025 7.00391 21.4025C7.00391 22.1567 7.30352 22.88 7.83682 23.4133C8.37013 23.9466 9.09345 24.2462 9.84766 24.2462C10.6018 24.2462 11.3252 23.9466 11.8585 23.4133C12.3918 22.88 12.6914 22.1567 12.6914 21.4025H18.4602C18.55 22.0823 18.8838 22.7063 19.3995 23.1583C19.9152 23.6103 20.5775 23.8595 21.2633 23.8595C21.949 23.8595 22.6114 23.6103 23.127 23.1583C23.6428 22.7063 23.9766 22.0823 24.0664 21.4025H24.8789C25.5254 21.4025 26.1453 21.1457 26.6025 20.6886C27.0596 20.2315 27.3164 19.6114 27.3164 18.965C27.3164 17.8876 26.8884 16.8542 26.1265 16.0923C25.3646 15.3305 24.3314 14.9025 23.2539 14.9025ZM15.5433 12.465C16.0771 12.464 16.6059 12.5683 17.0995 12.7718C17.593 12.9754 18.0416 13.2742 18.4195 13.6512L19.6708 14.9025H9.63641C9.48499 14.9035 9.33628 14.8622 9.20708 14.7833C9.07787 14.7043 8.97329 14.5908 8.90516 14.4556L7.96266 12.5706C8.17814 12.502 8.40277 12.4664 8.62891 12.465H15.5433ZM6.19141 18.965V14.9025C6.19185 14.4091 6.34201 13.9275 6.62204 13.5212L7.43454 15.1462C7.63384 15.5608 7.94637 15.9104 8.33599 16.1548C8.72563 16.3993 9.17646 16.5284 9.63641 16.5275H14.3164V19.7775H12.407C12.1788 19.2915 11.8169 18.8805 11.3636 18.5926C10.9104 18.3047 10.3846 18.1518 9.84766 18.1518C9.31072 18.1518 8.78488 18.3047 8.33163 18.5926C7.8784 18.8805 7.5165 19.2915 7.28828 19.7775H7.00391C6.78842 19.7775 6.58176 19.6919 6.42938 19.5396C6.27701 19.3871 6.19141 19.1804 6.19141 18.965ZM9.84766 22.215C9.60661 22.215 9.37098 22.1435 9.17056 22.0096C8.97013 21.8757 8.81392 21.6853 8.72168 21.4626C8.62943 21.24 8.6053 20.9949 8.65232 20.7585C8.69935 20.522 8.81543 20.3049 8.98587 20.1344C9.15632 19.964 9.37348 19.848 9.60989 19.8009C9.8463 19.7539 10.0914 19.778 10.3141 19.8703C10.5367 19.9625 10.7271 20.1187 10.861 20.3192C10.9949 20.5195 11.0664 20.7552 11.0664 20.9962C11.0664 21.3195 10.938 21.6295 10.7094 21.858C10.4809 22.0866 10.1709 22.215 9.84766 22.215ZM21.2226 22.215C20.9816 22.215 20.746 22.1435 20.5455 22.0096C20.3451 21.8757 20.1889 21.6853 20.0967 21.4626C20.0044 21.24 19.9803 20.9949 20.0273 20.7585C20.0743 20.522 20.1904 20.3049 20.3609 20.1344C20.5313 19.964 20.7485 19.848 20.9849 19.8009C21.2213 19.7539 21.4663 19.778 21.6891 19.8703C21.9118 19.9625 22.1021 20.1187 22.236 20.3192C22.3699 20.5195 22.4414 20.7552 22.4414 20.9962C22.4414 21.3195 22.313 21.6295 22.0844 21.858C21.8559 22.0866 21.5459 22.215 21.2226 22.215ZM24.8789 19.7775H23.782C23.5538 19.2915 23.1919 18.8805 22.7386 18.5926C22.2854 18.3047 21.7596 18.1518 21.2226 18.1518C20.6857 18.1518 20.1599 18.3047 19.7067 18.5926C19.2534 18.8805 18.8915 19.2915 18.6633 19.7775H15.9414V16.5275H23.2539C23.5947 16.5293 23.9312 16.6025 24.2419 16.7425C24.5526 16.8825 24.8305 17.086 25.0576 17.34H24.8789C24.6634 17.34 24.4568 17.4256 24.3044 17.5779C24.152 17.7303 24.0664 17.937 24.0664 18.1525C24.0664 18.3679 24.152 18.5746 24.3044 18.7271C24.4568 18.8794 24.6634 18.965 24.8789 18.965H25.6914C25.6914 19.1804 25.6058 19.3871 25.4534 19.5396C25.301 19.6919 25.0944 19.7775 24.8789 19.7775Z" fill="white"/>
</g>
<defs>
<filter id="filter0_d_5_26" x="-1.05859" y="0.340088" width="34" height="42" filterUnits="userSpaceOnUse" color-interpolation-filters="sRGB">
<feFlood flood-opacity="0" result="BackgroundImageFix"/>
<feColorMatrix in="SourceAlpha" type="matrix" values="0 0 0 0 0 0 0 0 0 0 0 0 0 0 0 0 0 0 127 0" result="hardAlpha"/>
<feOffset dy="4"/>
<feGaussianBlur stdDeviation="2"/>
<feComposite in2="hardAlpha" operator="out"/>
<feColorMatrix type="matrix" values="0 0 0 0 0 0 0 0 0 0 0 0 0 0 0 0 0 0 0.25 0"/>
<feBlend mode="normal" in2="BackgroundImageFix" result="effect1_dropShadow_5_26"/>
<feBlend mode="normal" in="SourceGraphic" in2="effect1_dropShadow_5_26" result="shape"/>
</filter>
</defs>
</svg>
