<svg width="27" height="35" viewBox="0 0 27 35" fill="none" xmlns="http://www.w3.org/2000/svg">
<mask id="mask0_5_9" style="mask-type:luminance" maskUnits="userSpaceOnUse" x="0" y="4" width="27" height="27">
<path d="M26.1406 4.34009H0.140625V30.3401H26.1406V4.34009Z" fill="white"/>
</mask>
<g mask="url(#mask0_5_9)">
<path d="M25.2928 20.7314H24.445V16.4923C24.445 15.0897 23.3039 13.9488 21.9015 13.9488H19.1213L18.0054 10.6009C17.6585 9.56072 16.6888 8.86182 15.5923 8.86182C15.4603 8.86182 6.29445 8.86182 6.07538 8.86182C4.97007 8.86182 4.02772 9.57067 3.67774 10.5575H2.68411C1.28163 10.5575 0.140625 11.6985 0.140625 13.1009V16.4923C0.140625 17.8948 1.28163 19.0357 2.68411 19.0357H3.53195V20.7314H2.68411C2.2159 20.7314 1.83626 21.111 1.83626 21.5792C1.83626 22.0475 2.21585 22.4271 2.68411 22.4271C3.47812 22.4271 4.43093 22.4271 5.22759 22.4271C5.22759 24.297 6.74894 25.8184 8.61892 25.8184C10.4889 25.8184 12.0102 24.297 12.0102 22.4271H15.9667C15.9667 24.297 17.4881 25.8184 19.3581 25.8184C21.2281 25.8184 22.7494 24.297 22.7494 22.4271C23.5463 22.4271 24.4994 22.4271 25.2929 22.4271C25.7611 22.4271 26.1407 22.0475 26.1407 21.5792C26.1407 21.111 25.761 20.7314 25.2928 20.7314ZM3.53195 17.34H2.68411C2.21661 17.34 1.83626 16.9597 1.83626 16.4922V13.1009C1.83626 12.6334 2.21661 12.2531 2.68411 12.2531H3.53195C3.53195 12.7933 3.53195 16.8162 3.53195 17.34ZM12.0102 10.5575H13.4233H15.5923C15.9579 10.5575 16.2811 10.7904 16.3967 11.1371L17.3338 13.9487H12.0102V10.5575ZM5.22759 11.4052C5.22759 10.9377 5.60794 10.5574 6.07543 10.5574H10.3146V13.9487H5.22759V11.4052ZM8.61892 24.1227C7.68393 24.1227 6.92328 23.362 6.92328 22.427C6.92328 21.492 7.68393 20.7314 8.61892 20.7314C9.55393 20.7314 10.3146 21.492 10.3146 22.427C10.3146 23.362 9.55393 24.1227 8.61892 24.1227ZM19.358 24.1227C18.4231 24.1227 17.6624 23.362 17.6624 22.427C17.6624 21.492 18.4231 20.7314 19.358 20.7314C20.293 20.7314 21.0536 21.492 21.0536 22.427C21.0536 23.362 20.293 24.1227 19.358 24.1227ZM22.7493 20.7314H22.2931C21.7057 19.7187 20.6105 19.0357 19.358 19.0357C18.1056 19.0357 17.0103 19.7187 16.423 20.7314H11.5539C10.9666 19.7187 9.87135 19.0357 8.61892 19.0357C7.36644 19.0357 6.27119 19.7187 5.68386 20.7314H5.22764V18.1879V15.6444C6.61021 15.6444 20.9937 15.6444 21.9016 15.6444C22.369 15.6444 22.7494 16.0247 22.7494 16.4923L22.7493 20.7314Z" fill="white"/>
<path d="M14.5552 17.3401H12.8595C12.3913 17.3401 12.0117 17.7197 12.0117 18.1879C12.0117 18.6561 12.3913 19.0357 12.8595 19.0357H14.5552C15.0234 19.0357 15.403 18.6562 15.403 18.1879C15.403 17.7197 15.0234 17.3401 14.5552 17.3401Z" fill="white"/>
</g>
</svg>
