<svg width="19" height="19" viewBox="0 0 19 19" fill="none" xmlns="http://www.w3.org/2000/svg">
<g clip-path="url(#clip0_5_1607)">
<path d="M10.8978 3.81996C10.8978 3.65996 10.8478 3.52996 10.7478 3.42996C10.6478 3.32996 10.5178 3.27996 10.3578 3.27996H4.71781C4.55781 3.27996 4.42781 3.32996 4.32781 3.42996C4.22781 3.52996 4.17781 3.65996 4.17781 3.81996V8.31996C4.17781 8.47996 4.22781 8.61996 4.32781 8.73996C4.42781 8.85996 4.55781 8.91996 4.71781 8.91996H10.3578C10.5178 8.91996 10.6478 8.85996 10.7478 8.73996C10.8478 8.61996 10.8978 8.47996 10.8978 8.31996V3.81996ZM9.75781 7.77996H5.25781V4.41996H9.75781V7.77996ZM17.3778 4.41996L15.0978 3.33996C14.9778 3.25996 14.8378 3.23996 14.6778 3.27996C14.5178 3.31996 14.4078 3.40996 14.3478 3.54996C14.2878 3.68996 14.2778 3.83996 14.3178 3.99996C14.3578 4.15996 14.4578 4.25996 14.6178 4.29996L15.4578 4.77996L15.3978 4.95996C15.3978 5.31996 15.5078 5.63996 15.7278 5.91996C15.9478 6.19996 16.2178 6.39996 16.5378 6.51996V13.36C16.5378 13.52 16.4778 13.66 16.3578 13.78C16.2378 13.9 16.1078 13.96 15.9678 13.96C15.8278 13.96 15.6978 13.9 15.5778 13.78C15.4578 13.66 15.3978 13.52 15.3978 13.36V8.85996C15.3978 8.21996 15.1678 7.63996 14.7078 7.11996C14.2478 6.59996 13.7378 6.27996 13.1778 6.15996V2.67996C13.1778 2.07996 12.9578 1.55996 12.5178 1.11996C12.0778 0.679962 11.5578 0.459961 10.9578 0.459961H4.17781C3.57781 0.459961 3.04781 0.679962 2.58781 1.11996C2.12781 1.55996 1.89781 2.07996 1.89781 2.67996V15.28L1.11781 15.7C0.877812 15.82 0.757812 15.98 0.757812 16.18V17.86C0.757812 18.02 0.817812 18.16 0.937812 18.28C1.05781 18.4 1.19781 18.46 1.35781 18.46H13.7178C13.8778 18.46 14.0078 18.4 14.1078 18.28C14.2078 18.16 14.2578 18.02 14.2578 17.86V16.18C14.2578 15.98 14.1578 15.82 13.9578 15.7L13.1778 15.28V7.29996C13.4578 7.41996 13.7078 7.62996 13.9278 7.92996C14.1478 8.22996 14.2578 8.53996 14.2578 8.85996V13.36C14.2578 13.84 14.4278 14.25 14.7678 14.59C15.1078 14.93 15.5078 15.1 15.9678 15.1C16.4278 15.1 16.8278 14.93 17.1678 14.59C17.5078 14.25 17.6778 13.84 17.6778 13.36V4.95996C17.6778 4.71996 17.5778 4.53996 17.3778 4.41996ZM13.1778 17.32H1.89781V16.54L2.73781 16.12C2.93781 16.04 3.03781 15.88 3.03781 15.64V2.67996C3.03781 2.39996 3.14781 2.14996 3.36781 1.92996C3.58781 1.70996 3.85781 1.59996 4.17781 1.59996H10.9578C11.2378 1.59996 11.4878 1.70996 11.7078 1.92996C11.9278 2.14996 12.0378 2.39996 12.0378 2.67996V15.64C12.0378 15.88 12.1378 16.04 12.3378 16.12L13.1778 16.54V17.32Z" fill="#405FF2"/>
</g>
<defs>
<clipPath id="clip0_5_1607">
<rect width="18" height="18" fill="white" transform="matrix(1 0 0 -1 0.21875 18.46)"/>
</clipPath>
</defs>
</svg>
