<svg width="19" height="19" viewBox="0 0 19 19" fill="none" xmlns="http://www.w3.org/2000/svg">
<g clip-path="url(#clip0_5_1604)">
<path d="M18.2305 11.0799C18.2305 13.1199 17.6305 14.9399 16.4305 16.5399C16.3105 16.6999 16.1505 16.7899 15.9505 16.8099C15.7505 16.8299 15.5705 16.7799 15.4105 16.6599C15.2505 16.5399 15.1605 16.3899 15.1405 16.2099C15.1205 16.0299 15.1705 15.8599 15.2905 15.6999C16.3305 14.3399 16.8505 12.7999 16.8505 11.0799C16.8505 9.71992 16.5105 8.45992 15.8305 7.29992C15.1505 6.13992 14.2205 5.21992 13.0405 4.53992C11.8605 3.85992 10.5905 3.51992 9.23047 3.51992C7.87047 3.51992 6.60047 3.85992 5.42047 4.53992C4.24047 5.21992 3.31047 6.13992 2.63047 7.29992C1.95047 8.45992 1.61047 9.71992 1.61047 11.0799C1.61047 12.7999 2.13047 14.3399 3.17047 15.6999C3.29047 15.8599 3.34047 16.0299 3.32047 16.2099C3.30047 16.3899 3.21047 16.5399 3.05047 16.6599C2.89047 16.7799 2.71047 16.8299 2.51047 16.8099C2.31047 16.7899 2.15047 16.6999 2.03047 16.5399C0.830469 14.9399 0.230469 13.1199 0.230469 11.0799C0.230469 9.47992 0.630469 7.98992 1.43047 6.60992C2.23047 5.22992 3.32047 4.13992 4.70047 3.33992C6.08047 2.53992 7.59047 2.13992 9.23047 2.13992C10.8705 2.13992 12.3805 2.53992 13.7605 3.33992C15.1405 4.13992 16.2305 5.22992 17.0305 6.60992C17.8305 7.98992 18.2305 9.47992 18.2305 11.0799ZM13.6705 6.87992C13.8305 6.99992 13.9105 7.15992 13.9105 7.35992C13.9105 7.55992 13.8305 7.71992 13.6705 7.83992L11.3905 10.1799C11.5905 10.5399 11.6905 10.9199 11.6905 11.3199C11.6905 11.9999 11.4505 12.5799 10.9705 13.0599C10.4905 13.5399 9.91047 13.7799 9.23047 13.7799C8.55047 13.7799 7.97047 13.5399 7.49047 13.0599C7.01047 12.5799 6.77047 11.9999 6.77047 11.3199C6.77047 10.6399 7.01047 10.0599 7.49047 9.57992C7.97047 9.09992 8.55047 8.85992 9.23047 8.85992C9.63047 8.85992 10.0105 8.95992 10.3705 9.15992L12.7105 6.87992C12.8305 6.71992 12.9905 6.63992 13.1905 6.63992C13.3905 6.63992 13.5505 6.71992 13.6705 6.87992ZM10.3105 11.3199C10.3105 11.0399 10.2005 10.7999 9.98047 10.5999C9.76047 10.3999 9.51047 10.2999 9.23047 10.2999C8.95047 10.2999 8.70047 10.3999 8.48047 10.5999C8.26047 10.7999 8.15047 11.0399 8.15047 11.3199C8.15047 11.5999 8.26047 11.8499 8.48047 12.0699C8.70047 12.2899 8.95047 12.3999 9.23047 12.3999C9.51047 12.3999 9.76047 12.2899 9.98047 12.0699C10.2005 11.8499 10.3105 11.5999 10.3105 11.3199Z" fill="#405FF2"/>
</g>
<defs>
<clipPath id="clip0_5_1604">
<rect width="18" height="18" fill="white" transform="matrix(1 0 0 -1 0.230469 18.46)"/>
</clipPath>
</defs>
</svg>
