<svg width="19" height="18" viewBox="0 0 19 18" fill="none" xmlns="http://www.w3.org/2000/svg">
<path d="M16.8078 7.60745C16.5251 7.60745 16.2821 7.39523 16.2498 7.10798C15.9648 4.57598 13.9976 2.61098 11.4656 2.32973C11.1573 2.29523 10.9346 2.01773 10.9691 1.70873C11.0028 1.40048 11.2796 1.17023 11.5901 1.21223C14.6478 1.55123 17.0238 3.92423 17.3673 6.98198C17.4026 7.29098 17.1798 7.5692 16.8716 7.6037C16.8506 7.60595 16.8288 7.60745 16.8078 7.60745Z" fill="#405FF2"/>
<path d="M14.1522 7.61567C13.8882 7.61567 13.6535 7.42967 13.601 7.16117C13.385 6.05117 12.5292 5.19542 11.4207 4.98017C11.1155 4.92092 10.9167 4.62617 10.976 4.32092C11.0352 4.01567 11.3375 3.81692 11.6352 3.87617C13.196 4.17917 14.4012 5.38367 14.705 6.94517C14.7642 7.25117 14.5655 7.54592 14.261 7.60517C14.2242 7.61192 14.1882 7.61567 14.1522 7.61567Z" fill="#405FF2"/>
<path fill-rule="evenodd" clip-rule="evenodd" d="M6.14177 12.3302C9.67655 15.8657 12.03 16.7927 13.5165 16.7927C14.25 16.7927 14.7735 16.567 15.1223 16.3165C15.138 16.3075 16.752 15.3205 17.0348 13.8265C17.1683 13.1252 16.9733 12.4315 16.4723 11.8195C14.4083 9.31374 13.3568 9.54774 12.1958 10.1125C11.4825 10.462 10.9193 10.7335 9.32855 9.14425C7.7387 7.55373 8.01296 6.9904 8.36015 6.27727C8.92565 5.11627 9.1583 4.06451 6.65177 1.99901C6.04127 1.50026 5.35202 1.30526 4.65152 1.43651C3.17927 1.71176 2.18777 3.29951 2.18777 3.29951C1.39876 4.40726 0.863267 7.05253 6.14177 12.3302ZM4.88102 2.53751C4.94702 2.52701 5.01227 2.52101 5.07677 2.52101C5.37077 2.52101 5.65427 2.63576 5.93702 2.86826C7.95825 4.53325 7.70252 5.05826 7.34852 5.785C6.81677 6.87775 6.53852 7.94424 8.5328 9.93999C10.5293 11.9357 11.5965 11.6575 12.6878 11.1242L12.6896 11.1233C13.4154 10.7705 13.9402 10.5155 15.603 12.5342C15.8873 12.8807 15.996 13.2272 15.9345 13.5925C15.7928 14.4325 14.8163 15.1847 14.5208 15.3677C13.4625 16.1222 10.9148 15.5125 6.93677 11.5352C2.96027 7.55799 2.34977 5.01026 3.13127 3.91151C3.28727 3.65726 4.04252 2.67926 4.88102 2.53751Z" fill="#405FF2"/>
</svg>
