<svg width="19" height="19" viewBox="0 0 19 19" fill="none" xmlns="http://www.w3.org/2000/svg">
<path d="M3.71969 2.14003C3.15969 2.14003 2.67969 2.34003 2.27969 2.74003C1.87969 3.14003 1.67969 3.63003 1.67969 4.21003C1.67969 4.79003 1.87969 5.28003 2.27969 5.68003C2.67969 6.08003 3.15969 6.28003 3.71969 6.28003C4.27969 6.28003 4.75969 6.08003 5.15969 5.68003C5.55969 5.28003 5.75969 4.79003 5.75969 4.21003C5.75969 3.63003 5.55969 3.14003 5.15969 2.74003C4.75969 2.34003 4.27969 2.14003 3.71969 2.14003ZM3.71969 3.28003C3.95969 3.28003 4.17969 3.37003 4.37969 3.55003C4.57969 3.73003 4.67969 3.95003 4.67969 4.21003C4.67969 4.47003 4.57969 4.69003 4.37969 4.87003C4.17969 5.05003 3.95969 5.14003 3.71969 5.14003C3.47969 5.14003 3.25969 5.05003 3.05969 4.87003C2.85969 4.69003 2.75969 4.47003 2.75969 4.21003C2.75969 3.95003 2.85969 3.73003 3.05969 3.55003C3.25969 3.37003 3.47969 3.28003 3.71969 3.28003ZM3.71969 12.64C3.15969 12.64 2.67969 12.84 2.27969 13.24C1.87969 13.64 1.67969 14.13 1.67969 14.71C1.67969 15.29 1.87969 15.78 2.27969 16.18C2.67969 16.58 3.15969 16.78 3.71969 16.78C4.27969 16.78 4.75969 16.58 5.15969 16.18C5.55969 15.78 5.75969 15.29 5.75969 14.71C5.75969 14.13 5.55969 13.64 5.15969 13.24C4.75969 12.84 4.27969 12.64 3.71969 12.64ZM3.71969 13.78C3.95969 13.78 4.17969 13.87 4.37969 14.05C4.57969 14.23 4.67969 14.45 4.67969 14.71C4.67969 14.97 4.57969 15.19 4.37969 15.37C4.17969 15.55 3.95969 15.64 3.71969 15.64C3.47969 15.64 3.25969 15.55 3.05969 15.37C2.85969 15.19 2.75969 14.97 2.75969 14.71C2.75969 14.45 2.85969 14.23 3.05969 14.05C3.25969 13.87 3.47969 13.78 3.71969 13.78ZM9.71969 2.14003C9.15969 2.14003 8.67969 2.34003 8.27969 2.74003C7.87969 3.14003 7.67969 3.63003 7.67969 4.21003C7.67969 4.79003 7.87969 5.28003 8.27969 5.68003C8.67969 6.08003 9.15969 6.28003 9.71969 6.28003C10.2797 6.28003 10.7597 6.08003 11.1597 5.68003C11.5597 5.28003 11.7597 4.79003 11.7597 4.21003C11.7597 3.63003 11.5597 3.14003 11.1597 2.74003C10.7597 2.34003 10.2797 2.14003 9.71969 2.14003ZM9.71969 3.28003C9.95969 3.28003 10.1797 3.37003 10.3797 3.55003C10.5797 3.73003 10.6797 3.95003 10.6797 4.21003C10.6797 4.47003 10.5797 4.69003 10.3797 4.87003C10.1797 5.05003 9.95969 5.14003 9.71969 5.14003C9.47969 5.14003 9.25969 5.05003 9.05969 4.87003C8.85969 4.69003 8.75969 4.47003 8.75969 4.21003C8.75969 3.95003 8.85969 3.73003 9.05969 3.55003C9.25969 3.37003 9.47969 3.28003 9.71969 3.28003ZM9.71969 12.64C9.15969 12.64 8.67969 12.84 8.27969 13.24C7.87969 13.64 7.67969 14.13 7.67969 14.71C7.67969 15.29 7.87969 15.78 8.27969 16.18C8.67969 16.58 9.15969 16.78 9.71969 16.78C10.2797 16.78 10.7597 16.58 11.1597 16.18C11.5597 15.78 11.7597 15.29 11.7597 14.71C11.7597 14.13 11.5597 13.64 11.1597 13.24C10.7597 12.84 10.2797 12.64 9.71969 12.64ZM9.71969 13.78C9.95969 13.78 10.1797 13.87 10.3797 14.05C10.5797 14.23 10.6797 14.45 10.6797 14.71C10.6797 14.97 10.5797 15.19 10.3797 15.37C10.1797 15.55 9.95969 15.64 9.71969 15.64C9.47969 15.64 9.25969 15.55 9.05969 15.37C8.85969 15.19 8.75969 14.97 8.75969 14.71C8.75969 14.45 8.85969 14.23 9.05969 14.05C9.25969 13.87 9.47969 13.78 9.71969 13.78ZM15.7197 2.14003C15.1597 2.14003 14.6797 2.34003 14.2797 2.74003C13.8797 3.14003 13.6797 3.63003 13.6797 4.21003C13.6797 4.79003 13.8797 5.28003 14.2797 5.68003C14.6797 6.08003 15.1597 6.28003 15.7197 6.28003C16.2797 6.28003 16.7597 6.08003 17.1597 5.68003C17.5597 5.28003 17.7597 4.79003 17.7597 4.21003C17.7597 3.63003 17.5597 3.14003 17.1597 2.74003C16.7597 2.34003 16.2797 2.14003 15.7197 2.14003ZM15.7197 3.28003C15.9597 3.28003 16.1797 3.37003 16.3797 3.55003C16.5797 3.73003 16.6797 3.95003 16.6797 4.21003C16.6797 4.47003 16.5797 4.69003 16.3797 4.87003C16.1797 5.05003 15.9597 5.14003 15.7197 5.14003C15.4797 5.14003 15.2597 5.05003 15.0597 4.87003C14.8597 4.69003 14.7597 4.47003 14.7597 4.21003C14.7597 3.95003 14.8597 3.73003 15.0597 3.55003C15.2597 3.37003 15.4797 3.28003 15.7197 3.28003ZM15.7197 12.64C15.1597 12.64 14.6797 12.84 14.2797 13.24C13.8797 13.64 13.6797 14.13 13.6797 14.71C13.6797 15.29 13.8797 15.78 14.2797 16.18C14.6797 16.58 15.1597 16.78 15.7197 16.78C16.2797 16.78 16.7597 16.58 17.1597 16.18C17.5597 15.78 17.7597 15.29 17.7597 14.71C17.7597 14.13 17.5597 13.64 17.1597 13.24C16.7597 12.84 16.2797 12.64 15.7197 12.64ZM15.7197 13.78C15.9597 13.78 16.1797 13.87 16.3797 14.05C16.5797 14.23 16.6797 14.45 16.6797 14.71C16.6797 14.97 16.5797 15.19 16.3797 15.37C16.1797 15.55 15.9597 15.64 15.7197 15.64C15.4797 15.64 15.2597 15.55 15.0597 15.37C14.8597 15.19 14.7597 14.97 14.7597 14.71C14.7597 14.45 14.8597 14.23 15.0597 14.05C15.2597 13.87 15.4797 13.78 15.7197 13.78ZM3.17969 5.68003V13.18C3.17969 13.34 3.22969 13.48 3.32969 13.6C3.42969 13.72 3.55969 13.78 3.71969 13.78C3.87969 13.78 4.00969 13.72 4.10969 13.6C4.20969 13.48 4.25969 13.36 4.25969 13.24V5.68003C4.25969 5.56003 4.20969 5.44003 4.10969 5.32003C4.00969 5.20003 3.87969 5.14003 3.71969 5.14003C3.55969 5.14003 3.42969 5.20003 3.32969 5.32003C3.22969 5.44003 3.17969 5.56003 3.17969 5.68003ZM9.17969 5.68003V13.18C9.17969 13.34 9.22969 13.48 9.32969 13.6C9.42969 13.72 9.55969 13.78 9.71969 13.78C9.87969 13.78 10.0097 13.72 10.1097 13.6C10.2097 13.48 10.2597 13.36 10.2597 13.24V5.68003C10.2597 5.56003 10.2097 5.44003 10.1097 5.32003C10.0097 5.20003 9.87969 5.14003 9.71969 5.14003C9.55969 5.14003 9.42969 5.20003 9.32969 5.32003C9.22969 5.44003 9.17969 5.56003 9.17969 5.68003ZM15.1797 5.68003V8.68003C15.1797 8.76003 15.1597 8.82003 15.1197 8.86003C15.0797 8.90003 15.0397 8.92003 14.9997 8.92003H3.71969C3.55969 8.92003 3.42969 8.97003 3.32969 9.07003C3.22969 9.17003 3.17969 9.30003 3.17969 9.46003C3.17969 9.62003 3.22969 9.75003 3.32969 9.85003C3.42969 9.95003 3.55969 10 3.71969 10H14.9997C15.3597 10 15.6597 9.88003 15.8997 9.64003C16.1397 9.40003 16.2597 9.08003 16.2597 8.68003V5.74003C16.2597 5.58003 16.2097 5.44003 16.1097 5.32003C16.0097 5.20003 15.8797 5.14003 15.7197 5.14003C15.5597 5.14003 15.4297 5.20003 15.3297 5.32003C15.2297 5.44003 15.1797 5.56003 15.1797 5.68003Z" fill="#405FF2"/>
</svg>
