<svg width="18" height="19" viewBox="0 0 18 19" fill="none" xmlns="http://www.w3.org/2000/svg">
<g clip-path="url(#clip0_9_646)">
<path d="M14.52 2.35022H13.86V1.69022C13.86 1.49022 13.79 1.32022 13.65 1.18022C13.51 1.04021 13.34 0.970215 13.14 0.970215C12.94 0.970215 12.77 1.04021 12.63 1.18022C12.49 1.32022 12.42 1.49022 12.42 1.69022V2.35022H5.58V1.69022C5.58 1.49022 5.51 1.32022 5.37 1.18022C5.23 1.04021 5.06 0.970215 4.86 0.970215C4.66 0.970215 4.49 1.04021 4.35 1.18022C4.21 1.32022 4.14 1.49022 4.14 1.69022V2.35022H3.48C2.84 2.35022 2.26 2.51022 1.74 2.83022C1.22 3.15022 0.8 3.57022 0.48 4.09021C0.16 4.61022 0 5.19022 0 5.83022V15.4902C0 16.1302 0.16 16.7102 0.48 17.2302C0.8 17.7502 1.22 18.1702 1.74 18.4902C2.26 18.8102 2.84 18.9702 3.48 18.9702H14.52C15.16 18.9702 15.74 18.8102 16.26 18.4902C16.78 18.1702 17.2 17.7502 17.52 17.2302C17.84 16.7102 18 16.1302 18 15.4902V5.83022C18 5.19022 17.84 4.61022 17.52 4.09021C17.2 3.57022 16.78 3.15022 16.26 2.83022C15.74 2.51022 15.16 2.35022 14.52 2.35022ZM3.48 3.79022H4.14V5.11022C4.14 5.31021 4.21 5.48022 4.35 5.62022C4.49 5.76021 4.66 5.83022 4.86 5.83022C5.06 5.83022 5.23 5.76021 5.37 5.62022C5.51 5.48022 5.58 5.31021 5.58 5.11022V3.79022H12.42V5.11022C12.42 5.31021 12.49 5.48022 12.63 5.62022C12.77 5.76021 12.94 5.83022 13.14 5.83022C13.34 5.83022 13.51 5.76021 13.65 5.62022C13.79 5.48022 13.86 5.31021 13.86 5.11022V3.79022H14.52C15.08 3.79022 15.57 3.99022 15.99 4.39021C16.41 4.79022 16.62 5.27022 16.62 5.83022V6.49022H1.38V5.83022C1.38 5.27022 1.59 4.79022 2.01 4.39021C2.43 3.99022 2.92 3.79022 3.48 3.79022ZM14.52 17.5902H3.48C2.92 17.5902 2.43 17.3802 2.01 16.9602C1.59 16.5402 1.38 16.0502 1.38 15.4902V7.93021H16.62V15.4902C16.62 16.0502 16.41 16.5402 15.99 16.9602C15.57 17.3802 15.08 17.5902 14.52 17.5902ZM6.24 10.6902C6.24 10.8902 6.17 11.0502 6.03 11.1702C5.89 11.2902 5.72 11.3502 5.52 11.3502H4.14C3.94 11.3502 3.78 11.2902 3.66 11.1702C3.54 11.0502 3.48 10.8902 3.48 10.6902C3.48 10.4902 3.54 10.3202 3.66 10.1802C3.78 10.0402 3.94 9.97021 4.14 9.97021H5.52C5.72 9.97021 5.89 10.0402 6.03 10.1802C6.17 10.3202 6.24 10.4902 6.24 10.6902ZM14.52 10.6902C14.52 10.8902 14.46 11.0502 14.34 11.1702C14.22 11.2902 14.06 11.3502 13.86 11.3502H12.48C12.28 11.3502 12.11 11.2902 11.97 11.1702C11.83 11.0502 11.76 10.8902 11.76 10.6902C11.76 10.4902 11.83 10.3202 11.97 10.1802C12.11 10.0402 12.28 9.97021 12.48 9.97021H13.86C14.06 9.97021 14.22 10.0402 14.34 10.1802C14.46 10.3202 14.52 10.4902 14.52 10.6902ZM10.38 10.6902C10.38 10.8902 10.31 11.0502 10.17 11.1702C10.03 11.2902 9.86 11.3502 9.66 11.3502H8.28C8.12 11.3502 7.97 11.2902 7.83 11.1702C7.69 11.0502 7.62 10.8902 7.62 10.6902C7.62 10.4902 7.69 10.3202 7.83 10.1802C7.97 10.0402 8.12 9.97021 8.28 9.97021H9.66C9.86 9.97021 10.03 10.0402 10.17 10.1802C10.31 10.3202 10.38 10.4902 10.38 10.6902ZM6.24 14.8302C6.24 15.0302 6.17 15.2002 6.03 15.3402C5.89 15.4802 5.72 15.5502 5.52 15.5502H4.14C3.94 15.5502 3.78 15.4802 3.66 15.3402C3.54 15.2002 3.48 15.0302 3.48 14.8302C3.48 14.6302 3.54 14.4602 3.66 14.3202C3.78 14.1802 3.94 14.1102 4.14 14.1102H5.52C5.72 14.1102 5.89 14.1802 6.03 14.3202C6.17 14.4602 6.24 14.6302 6.24 14.8302ZM14.52 14.8302C14.52 15.0302 14.46 15.2002 14.34 15.3402C14.22 15.4802 14.06 15.5502 13.86 15.5502H12.48C12.28 15.5502 12.11 15.4802 11.97 15.3402C11.83 15.2002 11.76 15.0302 11.76 14.8302C11.76 14.6302 11.83 14.4602 11.97 14.3202C12.11 14.1802 12.28 14.1102 12.48 14.1102H13.86C14.06 14.1102 14.22 14.1802 14.34 14.3202C14.46 14.4602 14.52 14.6302 14.52 14.8302ZM10.38 14.8302C10.38 15.0302 10.31 15.2002 10.17 15.3402C10.03 15.4802 9.86 15.5502 9.66 15.5502H8.28C8.12 15.5502 7.97 15.4802 7.83 15.3402C7.69 15.2002 7.62 15.0302 7.62 14.8302C7.62 14.6302 7.69 14.4602 7.83 14.3202C7.97 14.1802 8.12 14.1102 8.28 14.1102H9.66C9.86 14.1102 10.03 14.1802 10.17 14.3202C10.31 14.4602 10.38 14.6302 10.38 14.8302Z" fill="#405FF2"/>
</g>
<defs>
<clipPath id="clip0_9_646">
<rect width="18" height="18" fill="white" transform="matrix(1 0 0 -1 0 18.9702)"/>
</clipPath>
</defs>
</svg>
